<?xml version="1.0" encoding="UTF-8"?>
<!DOCTYPE svg PUBLIC "-//W3C//DTD SVG 1.1//EN" "http://www.w3.org/Graphics/SVG/1.1/DTD/svg11.dtd">
<!-- Creator: CorelDRAW 2017 -->
<svg xmlns="http://www.w3.org/2000/svg" xml:space="preserve" width="105.833mm" height="18.3444mm" version="1.1" style="shape-rendering:geometricPrecision; text-rendering:geometricPrecision; image-rendering:optimizeQuality; fill-rule:evenodd; clip-rule:evenodd"
viewBox="0 0 10583.32 1834.44"
 xmlns:xlink="http://www.w3.org/1999/xlink">
 <defs>
  <style type="text/css">
   <![CDATA[
    .fil0 {fill:#FEFEFE}
    .fil2 {fill:#FA6831}
    .fil3 {fill:#FEFEFE;fill-rule:nonzero}
    .fil1 {fill:#2B2A29;fill-rule:nonzero}
   ]]>
  </style>
 </defs>
 <g id="Layer_x0020_1">
  <metadata id="CorelCorpID_0Corel-Layer"/>
  <rect class="fil0" y="535.92" width="4257.14" height="1298.52"/>
  <path class="fil1" d="M427.69 945.08l142.58 0c65.02,0 114.07,29.65 114.07,107.22 0,74.14 -46.76,101.52 -114.07,101.52l-142.58 0 0 -208.74zm-212.17 644.48l212.17 0 0 -271.48 174.52 0c179.09,0 294.3,-78.71 294.3,-280.61 0,-192.77 -142.59,-262.36 -294.3,-262.36l-386.69 0 0 814.45z"/>
  <path id="1" class="fil1" d="M1173.13 945.08l168.82 0c59.32,0 107.22,27.37 107.22,87.83 0,62.74 -34.22,95.82 -98.09,95.82l-177.95 0 0 -183.65zm-212.17 644.48l212.17 0 0 -296.58 160.84 0c100.38,0 112.92,84.41 118.63,166.54 3.42,23.96 5.7,101.52 23.95,130.04l209.89 0c-28.52,-31.94 -30.8,-148.29 -34.22,-183.65 -5.71,-77.57 -33.08,-173.38 -118.64,-195.06l0 -2.28c86.7,-33.08 127.76,-116.35 127.76,-204.18 0,-164.26 -142.58,-229.28 -285.17,-229.28l-415.21 0 0 814.45z"/>
  <path id="2" class="fil1" d="M2452.4 775.11l-212.16 0 0 490.5c0,104.94 -37.65,158.55 -142.59,158.55 -104.94,0 -142.58,-53.61 -142.58,-158.55l0 -490.5 -212.17 0 0 477.95c0,236.12 108.36,353.61 354.75,353.61 246.39,0 354.75,-117.49 354.75,-353.61l0 -477.95z"/>
  <path id="3" class="fil1" d="M2511.15 1315.8c0,208.74 167.68,290.87 353.61,290.87 179.08,0 354.75,-66.16 354.75,-272.62 0,-147.15 -118.63,-201.9 -236.12,-234.98 -118.63,-33.08 -236.12,-43.35 -236.12,-107.23 0,-53.61 57.03,-69.58 102.66,-69.58 63.88,0 134.6,25.1 131.18,98.1l212.16 0c0,-182.51 -165.4,-262.36 -326.23,-262.36 -152.85,0 -331.94,69.59 -331.94,247.53 0,150.57 123.19,201.9 238.4,234.98 117.49,33.08 233.84,45.63 233.84,118.63 0,60.46 -66.16,83.27 -130.04,83.27 -91.25,0 -149.43,-30.8 -153.99,-126.61l-212.16 0z"/>
  <path id="4" class="fil1" d="M3199.54 1589.56l217.87 0 51.33 -146.01 284.03 0 50.19 146.01 221.3 0 -304.57 -814.45 -215.58 0 -304.57 814.45zm410.65 -588.59l2.28 0 90.11 285.17 -184.79 0 92.4 -285.17z"/>
  <rect class="fil0" x="4431.78" y="535.92" width="6058.96" height="1298.52"/>
  <path class="fil1" d="M5450.42 1065.99c-5.7,-196.2 -195.05,-307.99 -371.86,-307.99 -247.53,0 -406.08,188.22 -406.08,424.34 0,236.12 158.55,424.33 406.08,424.33 206.46,0 359.31,-122.05 371.86,-333.08l-212.16 0c-7.99,94.68 -63.88,150.57 -164.26,150.57 -136.88,0 -189.35,-119.77 -189.35,-241.82 0,-122.06 52.47,-241.83 189.35,-241.83 90.11,0 151.71,43.35 164.26,125.48l212.16 0z"/>
  <path id="1" class="fil1" d="M5708.79 1182.34c0,-122.06 52.47,-241.83 189.35,-241.83 136.89,0 189.36,119.77 189.36,241.83 0,122.05 -52.47,241.82 -189.36,241.82 -136.88,0 -189.35,-119.77 -189.35,-241.82zm-212.16 0c0,236.12 146,424.33 401.51,424.33 255.52,0 401.52,-188.21 401.52,-424.33 0,-236.12 -146,-424.34 -401.52,-424.34 -255.51,0 -401.51,188.22 -401.51,424.34z"/>
  <polygon id="2" class="fil1" points="6376.66,1589.56 6576.28,1589.56 6576.28,1081.96 6578.56,1081.96 6861.45,1589.56 7079.32,1589.56 7079.32,775.11 6879.7,775.11 6879.7,1277.01 6877.42,1277.01 6594.53,775.11 6376.66,775.11 "/>
  <polygon id="3" class="fil1" points="7185.97,1589.56 7385.59,1589.56 7385.59,1081.96 7387.87,1081.96 7670.76,1589.56 7888.63,1589.56 7888.63,775.11 7689.01,775.11 7689.01,1277.01 7686.73,1277.01 7403.84,775.11 7185.97,775.11 "/>
  <polygon id="4" class="fil1" points="7997.56,1589.56 8658.02,1589.56 8658.02,1407.05 8209.73,1407.05 8209.73,1251.92 8608.97,1251.92 8608.97,1087.66 8209.73,1087.66 8209.73,945.08 8646.61,945.08 8646.61,775.11 7997.56,775.11 "/>
  <path id="5" class="fil1" d="M9495.85 1065.99c-5.7,-196.2 -195.05,-307.99 -371.86,-307.99 -247.53,0 -406.08,188.22 -406.08,424.34 0,236.12 158.55,424.33 406.08,424.33 206.46,0 359.31,-122.05 371.86,-333.08l-212.16 0c-7.99,94.68 -63.88,150.57 -164.26,150.57 -136.88,0 -189.35,-119.77 -189.35,-241.82 0,-122.06 52.47,-241.83 189.35,-241.83 90.11,0 151.71,43.35 164.26,125.48l212.16 0z"/>
  <polygon id="6" class="fil1" points="10218.48,775.11 9520.38,775.11 9520.38,957.62 9763.35,957.62 9763.35,1589.56 9975.51,1589.56 9975.51,957.62 10218.48,957.62 "/>
  <rect class="fil2" x="8878.71" width="1704.61" height="676.14"/>
  <polygon class="fil3" points="9638.25,127.96 9525.78,127.96 9464.71,443.59 9463.5,443.59 9400.01,127.96 9294.19,127.96 9230.7,443.59 9229.49,443.59 9168.42,127.96 9055.95,127.96 9172.65,559.69 9286.93,559.69 9346.19,262.19 9347.4,262.19 9406.66,559.69 9519.13,559.69 "/>
  <polygon id="1" class="fil3" points="9657.9,559.69 10008,559.69 10008,462.94 9770.37,462.94 9770.37,380.71 9982,380.71 9982,293.64 9770.37,293.64 9770.37,218.05 10001.96,218.05 10001.96,127.96 9657.9,127.96 "/>
  <path id="2" class="fil3" d="M10165.52 215.03l87.07 0c23.58,0 45.95,10.28 45.95,41.72 0,30.84 -26.6,41.12 -45.95,41.12l-87.07 0 0 -82.84zm-112.47 344.66l207.4 0c92.52,0 168.1,-31.44 168.1,-134.24 0,-48.98 -28.42,-88.28 -74.38,-102.19 33.87,-16.93 56.84,-48.37 56.84,-87.07 0,-89.49 -81.63,-110.05 -156,-108.23l-201.96 0 0 431.73zm112.47 -189.26l90.09 0c33.86,0 60.47,12.7 60.47,50.79 0,35.68 -24.79,48.37 -60.47,48.37l-90.09 0 0 -99.16z"/>
 </g>
</svg>
