<svg
    xmlns="http://www.w3.org/2000/svg" width="49.999" height="37.5" viewBox="0 0 1028.03 771.02" shape-rendering="geometricPrecision" image-rendering="optimizeQuality" fill-rule="evenodd">
    <path d="M1028.03 514c0 93.56-25.1 181.33-68.97 256.96L884.7 728c36.46-63 57.65-135.96 57.65-214C942.35 277.42 750.6 85.66 514 85.66 277.44 85.66 85.68 277.42 85.68 514c0 78.05 21.2 151 57.65 214l-74.36 42.97C25.1 695.32 0 607.55 0 514 0 230.6 230.6 0 514 0c283.43 0 514.02 230.6 514.02 514zM514 771.02c-55.43 0-100.35-44.92-100.35-100.35 0-37.82 20.95-70.76 51.82-87.86L514 342.67l48.54 240.08c30.92 17.1 51.82 50.03 51.82 87.86 0 55.47-44.92 100.4-100.36 100.4z" fill="#ffffff"/>
    <path d="M541.77 156.87c-9.37-.78-18.7-1.1-27.8-1.1-9.08 0-18.46.4-27.84 1.1v119.25c9.26-1.06 18.6-1.63 27.84-1.63 9.26 0 18.6.5 27.8 1.63V156.87zM789.83 287.9a377.26 377.26 0 0 0-39.32-40.99l-80.97 84.35c14.52 12.08 27.72 25.87 39.32 41l80.97-84.35zm-111.4-91.23c-16.58-8.77-33.84-16.23-51.4-22.22l-43.86 110.22a240.68 240.68 0 0 1 51.4 22.22l43.86-110.22zM274.3 462.24c5.18-18.63 12.33-36.6 21.34-53.54l-105.77-45.65a384.14 384.14 0 0 0-21.34 53.53l105.77 45.65zm118.2-154.9c16.24-9.47 33.45-16.97 51.32-22.4l-44.3-110.04c-17.56 6.08-34.77 13.6-51.32 22.44l44.3 110zm-73.47 64.9c11.6-15.17 24.85-28.92 39.38-41l-80.97-84.35c-14.05 12.6-27.28 26.34-39.32 41l80.9 84.35zm538.57 38.68c-6.04-18.3-13.45-36.15-22.1-53.2L730.37 405.1c9.3 16.87 16.7 34.7 22.15 53.2l105.07-47.37z" fill="#ef7f1a"/>
</svg>
