<svg
    xmlns="http://www.w3.org/2000/svg" width="13.875" height="11.267" viewBox="0 0 10.08 8.18" shape-rendering="geometricPrecision" image-rendering="optimizeQuality" fill-rule="evenodd">
    <path d="M3.12 5.02c-.8-.78-.9-1.24-.2-2.13.24-.3.35-.62.35-.92C3.27 1.34 2.8.72 2.2 0l-.95.9c.9 1.05.82 1.16.17 2.08-.2.3-.3.6-.3.9 0 .76.57 1.48 1.1 2.02l.9-.87zm5.7 0c-.8-.78-.9-1.24-.2-2.13.24-.3.35-.62.35-.92C8.96 1.34 8.5.72 7.9 0l-.95.9c.9 1.05.82 1.16.17 2.08-.2.3-.3.6-.3.9 0 .76.57 1.48 1.1 2.02l.9-.87zm-2.88 0c-.8-.78-.9-1.24-.2-2.13.24-.3.35-.62.35-.92 0-.63-.46-1.25-1.06-1.97l-.95.9c.9 1.05.82 1.16.17 2.08-.2.3-.3.6-.3.9 0 .76.57 1.48 1.1 2.02l.9-.87z" fill="#ef7f1a"/>
    <path d="M0 6.8h10.08v1.4H0z" fill-rule="nonzero" fill="#ffffff"/>
</svg>
