<svg
    xmlns="http://www.w3.org/2000/svg" width="44.561" height="44.561" viewBox="0 0 231.76 231.76" shape-rendering="geometricPrecision" image-rendering="optimizeQuality" fill-rule="evenodd">
    <path d="M115.88 0C51.88 0 0 51.88 0 115.88c0 21.47 5.84 41.57 16.02 58.8v-59.05c.13-55.04 44.8-99.62 99.85-99.62 88.68 0 133.36 107.72 70.6 170.47-47.62 47.63-121.14 33.36-153.82-15.06v25.08c21.06 21.73 50.56 35.24 83.2 35.24 64 0 115.88-51.88 115.88-115.88S179.87-.01 115.87-.01zm30.67 85.2c-27.24-27.25-74.03-7.86-74.03 30.67 0 38.52 46.8 57.92 74.03 30.67 16.93-16.94 16.94-44.4 0-61.33zm-30.67-.54c-17.23 0-31.2 13.97-31.2 31.2s13.97 31.2 31.2 31.2 31.2-13.97 31.2-31.2-13.97-31.2-31.2-31.2z" fill="#ffffff"/>
    <path d="M115.88 16.02c88.68 0 133.36 107.72 70.6 170.47-47.62 47.63-121.14 33.36-153.82-15.06v51.42a8.32 8.32 0 1 1-16.64 0v-107.2c.13-55.04 44.8-99.62 99.85-99.62zm30.67 69.2c-27.24-27.25-74.03-7.86-74.03 30.67 0 38.52 46.8 57.92 74.03 30.67 16.93-16.94 16.94-44.4 0-61.33z" fill="#ef7f1a"/>
</svg>
