<svg
    xmlns="http://www.w3.org/2000/svg" width="12.389" height="15.439" viewBox="0 0 7.2 8.97" shape-rendering="geometricPrecision" image-rendering="optimizeQuality" fill-rule="nonzero">
    <path d="M4.16 4.4V5.5a.56.56 0 0 1-.56.56H1.12v.34h5.53a.56.56 0 0 1 .56.56v1.45a.56.56 0 0 1-.56.56H.57a.56.56 0 1 1 0-1.12H6.1v-.34H.57a.56.56 0 0 1-.56-.56V5.5a.56.56 0 0 1 .56-.56h2.48V4.4h1.12z" fill="#ef7f1a"/>
    <path d="M6.13 0v2.06L4.34 4.4H2.86l-1.8-2.33V0H2.2v1.68l1.2 1.6h.4L5 1.68V0z" fill="#ffffff"/>
</svg>
